<?xml version="1.0" encoding="utf-8"?>
<!-- Generator: Adobe Illustrator 20.1.0, SVG Export Plug-In . SVG Version: 6.00 Build 0)  -->
<svg version="1.1" id="Layer_1" xmlns="http://www.w3.org/2000/svg" xmlns:xlink="http://www.w3.org/1999/xlink" x="0px" y="0px"
	 viewBox="0 0 661 161" style="enable-background:new 0 0 661 161;" xml:space="preserve">
<style type="text/css">
	.st0{fill:#FFFFFF;}
	.st1{fill:none;stroke:#FFFFFF;stroke-width:2;stroke-miterlimit:10;}
</style>
<path class="st0" d="M20.1,47.9c0,1.4,0.1,2.8,0.2,4.1c0.1,1.4,0.4,2.6,0.9,3.7s1.3,2,2.4,2.6c1.1,0.7,2.6,1,4.5,1
	c2.9,0,4.9-0.8,6.1-2.5c1.2-1.6,1.8-4,1.8-7.2v-32h4.2v32.3c0,4.3-1,7.6-3,9.9s-5.2,3.4-9.5,3.4c-2.5,0-4.5-0.4-6.1-1.3
	c-1.5-0.8-2.7-2-3.5-3.4s-1.4-3-1.7-4.9c-0.3-1.8-0.4-3.7-0.4-5.7C16,47.9,20.1,47.9,20.1,47.9z"/>
<path class="st0" d="M64.5,43.4c0.7-0.1,1.5-0.2,2.5-0.4c1-0.2,1.8-0.4,2.4-0.7c0.6-0.3,1-0.8,1.1-1.5s0.2-1.3,0.2-1.9
	c0-1.9-0.6-3.4-1.8-4.7c-1.2-1.2-3.3-1.8-6.1-1.8c-1.3,0-2.4,0.1-3.5,0.3c-1.1,0.2-2,0.6-2.8,1.2s-1.5,1.3-2,2.2
	c-0.5,0.9-0.9,2.1-1,3.5h-3.8c0.1-1.9,0.6-3.5,1.3-4.8s1.7-2.4,2.9-3.3c1.2-0.8,2.5-1.5,4.1-1.9c1.5-0.4,3.2-0.6,4.9-0.6
	c1.6,0,3.1,0.2,4.5,0.5c1.4,0.4,2.7,0.9,3.7,1.7s1.9,1.8,2.5,3.1c0.6,1.3,0.9,2.8,0.9,4.7v17.4c0,1.4,0.3,2.4,0.8,2.7
	c0.5,0.4,1.6,0.3,3.1-0.3v2.9c-0.3,0.1-0.7,0.2-1.3,0.4c-0.6,0.2-1.1,0.2-1.6,0.2c-0.6,0-1.1-0.1-1.7-0.2c-0.6-0.1-1.1-0.3-1.5-0.6
	c-0.4-0.3-0.7-0.7-0.9-1.1S71,59.5,70.9,59s-0.1-1.1-0.1-1.6c-1.6,1.7-3.4,3-5.4,4c-2,0.9-4.2,1.4-6.5,1.4c-1.4,0-2.7-0.2-4-0.6
	s-2.4-0.9-3.4-1.7c-1-0.8-1.8-1.7-2.3-2.9c-0.6-1.1-0.9-2.5-0.9-4c0-5.4,3.7-8.6,11.2-9.6L64.5,43.4z M70.8,45.2
	c-1.6,0.7-3.1,1.1-4.8,1.3c-1.6,0.2-3.2,0.4-4.8,0.5c-2.8,0.2-5.1,0.8-6.6,1.9c-1.6,1.1-2.4,2.7-2.4,4.9c0,1,0.2,1.8,0.6,2.6
	c0.4,0.7,0.9,1.3,1.5,1.8s1.4,0.8,2.2,1s1.7,0.3,2.6,0.3c1.5,0,2.9-0.2,4.3-0.6c1.4-0.4,2.6-0.9,3.7-1.7c1.1-0.8,2-1.7,2.6-2.9
	c0.7-1.2,1-2.6,1-4.2v-4.9H70.8z"/>
<path class="st0" d="M87.4,62h-3.7V30h3.7v4.8h0.1c0.9-1.9,2.3-3.3,4.1-4.2c1.8-1,3.7-1.5,5.8-1.5c1.5,0,2.7,0.2,3.8,0.5
	c1,0.3,1.9,0.8,2.6,1.3c0.7,0.6,1.3,1.2,1.8,1.9c0.5,0.7,0.9,1.5,1.2,2.4c1.1-2.1,2.5-3.7,4.3-4.7s3.8-1.5,6.1-1.5
	c2.2,0,3.9,0.4,5.2,1.1s2.3,1.7,3,2.8c0.7,1.2,1.2,2.5,1.4,4s0.3,3.1,0.3,4.7V62h-3.7V39.9c0-2.3-0.5-4.1-1.5-5.4s-2.8-2-5.4-2
	c-1.4,0-2.7,0.3-3.9,0.9c-1.3,0.6-2.4,1.5-3.3,2.7c-0.4,0.5-0.8,1.2-1,1.9c-0.3,0.7-0.5,1.5-0.6,2.3c-0.2,0.8-0.3,1.6-0.3,2.3
	c-0.1,0.8-0.1,1.5-0.1,2.2V62h-3.7V39.9c0-2.3-0.5-4.1-1.5-5.4s-2.8-2-5.4-2c-1.4,0-2.7,0.3-3.9,0.9c-1.3,0.6-2.4,1.5-3.3,2.7
	c-0.4,0.5-0.8,1.2-1,1.9c-0.3,0.7-0.5,1.5-0.6,2.3c-0.2,0.8-0.3,1.6-0.3,2.3c-0.1,0.8-0.1,1.5-0.1,2.2L87.4,62L87.4,62z"/>
<path class="st0" d="M137.9,46.9c0,1.7,0.2,3.4,0.7,4.9s1.1,2.9,2,4s2,2,3.4,2.7s2.9,1,4.7,1c2.4,0,4.5-0.6,6.2-1.9s2.9-3.1,3.5-5.4
	h4.1c-0.5,1.5-1,2.9-1.8,4.2c-0.7,1.3-1.7,2.4-2.8,3.4s-2.4,1.7-4,2.3c-1.5,0.5-3.3,0.8-5.3,0.8c-2.6,0-4.8-0.4-6.6-1.3
	c-1.9-0.9-3.4-2-4.6-3.6c-1.2-1.5-2.1-3.3-2.7-5.3c-0.6-2-0.9-4.2-0.9-6.6c0-2.3,0.3-4.5,1-6.6s1.6-3.9,2.9-5.4
	c1.3-1.5,2.8-2.8,4.6-3.6c1.8-0.9,3.9-1.3,6.2-1.3c4.4,0,7.9,1.5,10.4,4.5s3.7,7.4,3.7,13.2C162.6,46.9,137.9,46.9,137.9,46.9z
	 M158.7,43.8c0-1.6-0.2-3-0.6-4.4c-0.4-1.4-1.1-2.6-1.9-3.6c-0.8-1-1.9-1.8-3.2-2.4s-2.7-0.9-4.4-0.9c-1.6,0-3.1,0.3-4.4,0.9
	c-1.3,0.6-2.3,1.4-3.2,2.5c-0.9,1-1.6,2.2-2.1,3.6s-0.9,2.8-1.1,4.3H158.7z"/>
<path class="st0" d="M172.1,52c0.6,2.8,1.6,4.7,3.1,5.8c1.5,1.1,3.7,1.7,6.5,1.7c1.4,0,2.5-0.2,3.5-0.5s1.8-0.8,2.4-1.3
	c0.6-0.6,1.1-1.2,1.5-1.9c0.3-0.7,0.5-1.4,0.5-2.2c0-1.6-0.5-2.7-1.5-3.5s-2.3-1.4-3.8-1.8s-3.2-0.8-4.9-1.1
	c-1.8-0.3-3.4-0.8-4.9-1.4s-2.8-1.5-3.8-2.7s-1.5-2.8-1.5-4.9c0-2.7,1-4.9,2.9-6.6c2-1.7,4.7-2.6,8.3-2.6c3.5,0,6.3,0.8,8.4,2.3
	c2.2,1.5,3.5,4.1,3.9,7.7h-3.8c-0.3-2.5-1.3-4.2-2.8-5.2s-3.5-1.5-5.8-1.5s-4.1,0.5-5.4,1.5c-1.2,1-1.9,2.3-1.9,4
	c0,1.4,0.5,2.5,1.5,3.3s2.3,1.4,3.8,1.9s3.2,0.9,4.9,1.3c1.8,0.4,3.4,0.9,4.9,1.6s2.8,1.6,3.8,2.7c1,1.2,1.5,2.8,1.5,4.8
	c0,1.5-0.3,2.9-1,4c-0.7,1.2-1.6,2.2-2.7,2.9c-1.2,0.8-2.5,1.4-4.1,1.8s-3.3,0.6-5.2,0.6s-3.6-0.3-5-0.8c-1.5-0.6-2.7-1.3-3.7-2.3
	s-1.8-2.1-2.4-3.5c-0.6-1.3-0.9-2.7-1-4.3h3.8V52z"/>
<path class="st0" d="M216.2,17.7h6.8L239,62h-6.6l-4.6-13.3h-17.4L205.6,62h-6.1L216.2,17.7z M226.1,43.9l-6.8-19.6l-7.1,19.6H226.1
	z"/>
<path class="st0" d="M243.7,29.7h5.2v4.6c1.5-1.9,3.1-3.2,4.9-4.1c1.7-0.8,3.6-1.2,5.7-1.2c4.6,0,7.7,1.6,9.3,4.8
	c0.9,1.7,1.3,4.3,1.3,7.5V62h-5.5V41.7c0-2-0.3-3.6-0.9-4.8c-1-2-2.7-3-5.2-3c-1.3,0-2.3,0.1-3.2,0.4c-1.5,0.4-2.8,1.3-3.9,2.7
	c-0.9,1.1-1.5,2.2-1.8,3.3c-0.3,1.1-0.4,2.8-0.4,4.9V62h-5.4L243.7,29.7L243.7,29.7z"/>
<path class="st0" d="M295.8,30.7c1,0.6,2.1,1.7,3.3,3.2V17.6h5.2V62h-4.9v-4.5c-1.3,2-2.8,3.4-4.5,4.3s-3.7,1.3-5.9,1.3
	c-3.6,0-6.7-1.5-9.3-4.5s-3.9-7-3.9-12.1c0-4.7,1.2-8.8,3.6-12.2c2.4-3.4,5.8-5.2,10.3-5.2C292,29.1,294.1,29.7,295.8,30.7z
	 M283.7,54.9c1.5,2.3,3.8,3.5,7,3.5c2.5,0,4.6-1.1,6.2-3.2c1.6-2.2,2.4-5.3,2.4-9.3c0-4.1-0.8-7.1-2.5-9.1s-3.7-2.9-6.1-2.9
	c-2.7,0-4.9,1-6.6,3.1c-1.7,2.1-2.5,5.2-2.5,9.2C281.5,49.7,282.2,52.6,283.7,54.9z"/>
<path class="st0" d="M312.5,29.7h5.2v5.6c0.4-1.1,1.5-2.4,3.1-4s3.5-2.3,5.7-2.3c0.1,0,0.3,0,0.5,0s0.7,0.1,1.2,0.1v5.7
	c-0.3-0.1-0.6-0.1-0.9-0.1c-0.3,0-0.6,0-0.9,0c-2.7,0-4.8,0.9-6.3,2.6c-1.5,1.8-2.2,3.8-2.2,6.1V62h-5.4L312.5,29.7L312.5,29.7z"/>
<path class="st0" d="M352.9,30.6c2.1,1.1,3.8,2.5,4.9,4.2c1.1,1.6,1.8,3.5,2.2,5.7c0.3,1.5,0.5,3.9,0.5,7.1H337
	c0.1,3.3,0.9,5.9,2.3,7.9c1.4,2,3.7,3,6.7,3c2.8,0,5.1-0.9,6.7-2.8c0.9-1.1,1.6-2.4,2-3.8h5.3c-0.1,1.2-0.6,2.5-1.4,4
	c-0.8,1.5-1.7,2.6-2.7,3.6c-1.6,1.6-3.7,2.7-6.1,3.3c-1.3,0.3-2.8,0.5-4.4,0.5c-4,0-7.4-1.5-10.2-4.4s-4.2-7-4.2-12.3
	c0-5.2,1.4-9.4,4.2-12.6s6.5-4.9,11-4.9C348.5,29,350.7,29.5,352.9,30.6z M354.8,43.3c-0.2-2.4-0.7-4.2-1.5-5.6
	c-1.5-2.6-3.9-3.9-7.4-3.9c-2.5,0-4.5,0.9-6.2,2.7c-1.7,1.8-2.6,4.1-2.7,6.9L354.8,43.3L354.8,43.3z"/>
<path class="st0" d="M369.8,29.7l6.2,25.4l6.3-25.4h6.1l6.3,25.3l6.6-25.3h5.4L397.3,62h-5.6l-6.6-25l-6.4,25h-5.6l-9.3-32.3H369.8z
	"/>
<path class="st0" d="M462.4,18.5c3.1,1,5.6,2.9,7.6,5.6c1.5,2.2,2.6,4.6,3.2,7.2c0.6,2.6,0.8,5,0.8,7.4c0,5.9-1.2,10.9-3.6,15
	c-3.2,5.5-8.2,8.3-14.9,8.3h-19.2V17.6h19.2C458.2,17.6,460.5,17.9,462.4,18.5z M445.3,25.3v29h8.6c4.4,0,7.4-2.2,9.2-6.5
	c0.9-2.4,1.4-5.2,1.4-8.5c0-4.5-0.7-8-2.1-10.4c-1.4-2.4-4.2-3.6-8.5-3.6H445.3z"/>
<path class="st0" d="M501.6,29.8c2.3,1,4.2,2.6,5.7,4.9c1.3,2,2.2,4.2,2.6,6.8c0.2,1.5,0.3,3.7,0.3,6.5h-23.9
	c0.1,3.3,1.3,5.6,3.4,6.9c1.3,0.8,2.9,1.2,4.7,1.2c2,0,3.5-0.5,4.8-1.5c0.7-0.5,1.3-1.3,1.8-2.3h8.8c-0.2,1.9-1.3,3.9-3.2,5.9
	c-2.9,3.2-7.1,4.8-12.4,4.8c-4.4,0-8.2-1.3-11.6-4c-3.3-2.7-5-7.1-5-13.2c0-5.7,1.5-10.1,4.5-13.1s6.9-4.6,11.8-4.6
	C496.8,28.3,499.3,28.8,501.6,29.8z M488.8,37.2c-1.2,1.3-2,2.9-2.3,5.1h14.8c-0.2-2.3-0.9-4-2.3-5.2c-1.4-1.2-3.1-1.8-5.1-1.8
	C491.7,35.4,490,36,488.8,37.2z"/>
<path class="st0" d="M521.2,51.5c0.2,1.5,0.6,2.6,1.2,3.3c1.1,1.1,3,1.7,5.9,1.7c1.7,0,3-0.3,4-0.8s1.5-1.3,1.5-2.3
	s-0.4-1.7-1.2-2.2s-3.8-1.4-9-2.6c-3.7-0.9-6.4-2.1-7.9-3.5s-2.3-3.3-2.3-5.9c0-3,1.2-5.6,3.6-7.8c2.4-2.2,5.7-3.3,10.1-3.3
	c4.1,0,7.5,0.8,10,2.5c2.6,1.6,4.1,4.5,4.5,8.5H533c-0.1-1.1-0.4-2-0.9-2.6c-0.9-1.2-2.6-1.7-4.8-1.7c-1.9,0-3.2,0.3-4,0.9
	s-1.2,1.3-1.2,2c0,1,0.4,1.7,1.3,2.1c0.8,0.5,3.8,1.3,9,2.4c3.4,0.8,6,2,7.7,3.6s2.5,3.7,2.5,6.2c0,3.3-1.2,5.9-3.6,8
	s-6.2,3.1-11.3,3.1c-5.2,0-9-1.1-11.5-3.3c-2.5-2.2-3.7-5-3.7-8.3L521.2,51.5L521.2,51.5z"/>
<path class="st0" d="M557.7,25.2H549v-7.9h8.7V25.2z M549,29.1h8.7V62H549V29.1z"/>
<path class="st0" d="M582.3,29.1c2.1,0.9,3.8,2.5,5.1,4.8v-4.7h8.4v31.2c0,4.2-0.7,7.4-2.1,9.6c-2.5,3.7-7.2,5.5-14.1,5.5
	c-4.2,0-7.6-0.8-10.3-2.5c-2.7-1.6-4.1-4.1-4.4-7.4h9.3c0.2,1,0.6,1.7,1.2,2.2c0.9,0.8,2.5,1.2,4.7,1.2c3.1,0,5.2-1,6.2-3.1
	c0.7-1.3,1-3.6,1-6.7V57c-0.8,1.4-1.7,2.5-2.7,3.2c-1.7,1.3-3.9,2-6.7,2c-4.2,0-7.6-1.5-10.1-4.4c-2.5-3-3.8-7-3.8-12
	c0-4.9,1.2-9,3.6-12.3s5.9-5,10.3-5C579.6,28.4,581.1,28.6,582.3,29.1z M585.2,52.7c1.4-1.5,2.1-3.9,2.1-7.2c0-3.1-0.7-5.5-2-7.1
	S582.2,36,580,36c-3,0-5.1,1.4-6.2,4.3c-0.6,1.5-0.9,3.4-0.9,5.6c0,1.9,0.3,3.6,1,5.1c1.2,2.8,3.2,4.2,6.2,4.2
	C582.1,54.9,583.8,54.2,585.2,52.7z"/>
<path class="st0" d="M630.2,31c2.2,1.8,3.2,4.7,3.2,8.8V62h-8.8V42c0-1.7-0.2-3.1-0.7-4c-0.8-1.7-2.4-2.5-4.8-2.5
	c-2.9,0-4.9,1.2-6,3.7c-0.6,1.3-0.8,3-0.8,5V62h-8.6V29.2h8.3V34c1.1-1.7,2.1-2.9,3.1-3.6c1.8-1.3,4-2,6.7-2
	C625.3,28.4,628.1,29.3,630.2,31z"/>
<line class="st1" x1="421.2" y1="17.7" x2="421.2" y2="63.2"/>
<path class="st0" d="M440,99.5v-6.2h1.4v6.2h6.6v1.4h-6.6v6.2H440v-6.2h-6.6v-1.4H440z"/>
<path class="st0" d="M464.9,100.4c-0.1-1.9-1.2-2.8-3.5-2.8c-2,0-3.3,0.8-3.3,2s0.6,1.6,4.3,2.4c2.1,0.5,3.2,0.9,4.1,1.6
	c0.9,0.7,1.3,1.7,1.3,2.9c0,2.8-2.3,4.5-6.1,4.5c-4.1,0-6.4-1.9-6.7-5.4h2.4c0.1,2.3,1.6,3.5,4.3,3.5c2.3,0,3.7-1,3.7-2.5
	c0-1.4-0.5-1.7-4.9-2.8c-1.8-0.4-2.9-0.9-3.6-1.4c-0.8-0.6-1.2-1.6-1.2-2.6c0-2.6,2.3-4.2,5.9-4.2c3.4,0,5.2,1.5,5.7,4.8H464.9z"/>
<path class="st0" d="M482.2,110.6h-2.4v-1.9c-1.2,1.7-2.5,2.3-4.6,2.3c-2.5,0-4.5-1.3-4.8-3.3c-0.1-0.6-0.1-1-0.1-2.2V96h2.4v9.4
	c0,2.6,0.9,3.7,3.1,3.7c1.3,0,2.5-0.5,3.1-1.3s0.9-1.8,0.9-3.5V96h2.4L482.2,110.6L482.2,110.6z"/>
<path class="st0" d="M485.8,115.4V96h2.4v1.9c1.3-1.6,2.8-2.3,4.8-2.3c3.7,0,6.2,3.1,6.2,7.8c0,4.6-2.5,7.6-6.2,7.6
	c-2,0-3.5-0.7-4.7-2.4v6.8L485.8,115.4L485.8,115.4z M492.6,109.1c2.6,0,4.2-2.2,4.2-5.8c0-3.7-1.5-5.8-4.1-5.8
	c-2.9,0-4.5,2.1-4.5,5.6C488.1,106.9,489.8,109.1,492.6,109.1z"/>
<path class="st0" d="M503.8,103.9c0.3,3.3,2,5.2,4.8,5.2c2,0,3.2-0.9,3.8-2.9h2.4c-0.9,3.2-3.1,4.8-6.4,4.8c-4.3,0-7.1-2.9-7.1-7.6
	c0-4.7,2.7-7.8,6.9-7.8c3.3,0,5.9,2,6.6,5.2c0.2,1.1,0.3,1.6,0.3,3.1H503.8z M508.3,97.6c-2.5,0-4.1,1.7-4.5,4.6h8.9
	C512.4,99.4,510.7,97.6,508.3,97.6z"/>
<path class="st0" d="M520.6,98.6c1.3-2,2.8-3,4.3-3c0.4,0,0.6,0,1.2,0.2v2.3c-0.6-0.2-0.8-0.2-1.2-0.2c-1.5,0-3.1,1-3.7,2.3
	c-0.6,1.1-0.6,1.4-0.6,3.6v6.9h-2.5V96.1h2.4L520.6,98.6L520.6,98.6z"/>
<path class="st0" d="M543.9,100.9c-0.5-2.2-1.7-3.2-3.9-3.2c-2.8,0-4.7,2.3-4.7,5.6c0,3.6,1.8,5.9,4.7,5.9c2.3,0,3.7-1.4,3.9-3.8
	h2.4c-0.4,3.7-2.7,5.7-6.3,5.7c-4.3,0-7-3-7-7.7c0-4.6,2.9-7.7,7.2-7.7c3.4,0,5.6,1.9,6.2,5.2H543.9z"/>
<path class="st0" d="M551.6,98.6c1.3-2,2.8-3,4.3-3c0.4,0,0.6,0,1.2,0.2v2.3c-0.6-0.2-0.8-0.2-1.2-0.2c-1.5,0-3.1,1-3.7,2.3
	c-0.6,1.1-0.6,1.4-0.6,3.6v6.9h-2.5V96.1h2.4L551.6,98.6L551.6,98.6z"/>
<path class="st0" d="M560.3,103.9c0.3,3.3,2,5.2,4.8,5.2c2,0,3.2-0.9,3.8-2.9h2.4c-0.9,3.2-3.1,4.8-6.4,4.8c-4.3,0-7.1-2.9-7.1-7.6
	c0-4.7,2.7-7.8,6.9-7.8c3.3,0,5.9,2,6.6,5.2c0.2,1.1,0.3,1.6,0.3,3.1H560.3z M564.8,97.6c-2.5,0-4.1,1.7-4.5,4.6h8.9
	C569,99.4,567.2,97.6,564.8,97.6z"/>
<path class="st0" d="M587.4,110.7c-0.6,0.1-0.8,0.2-1.3,0.2c-1.7,0-2.2-0.6-2.4-2.4c-1.2,1.7-2.9,2.6-5.2,2.6c-3.1,0-5-1.5-5-4
	c0-1.8,1-3.3,2.8-3.9c1.2-0.5,1.7-0.6,5.1-1.1c1.5-0.2,2-0.7,2-1.7c0-1.7-1-2.6-3-2.6c-2.7,0-3.7,0.8-3.7,3.1h-2.3
	c0-1.7,0.4-2.7,1.2-3.5c1.1-1,2.7-1.5,4.7-1.5c1.8,0,3.3,0.4,4.2,1.2c0.9,0.8,1.2,1.6,1.2,3.4v6.9c0,1.6,0.2,2.1,1.1,2.1
	c0.2,0,0.3,0,0.6-0.1L587.4,110.7L587.4,110.7z M580.6,103.7c-3.7,0.7-4.7,1.4-4.7,3.1c0,1.4,1.2,2.4,3,2.4c2.6,0,4.4-1.5,4.4-3.7
	V103C582.5,103.3,582,103.5,580.6,103.7z"/>
<path class="st0" d="M595.1,96.1V98h-2.9v8.9c0,1.7,0.3,2.1,1.4,2.1c0.3,0,0.6,0,1-0.2v2c-0.7,0.2-1,0.2-1.5,0.2
	c-2.4,0-3.3-0.9-3.3-3.3V98h-2.1v-1.9h2.1v-4.7h2.4v4.7H595.1z"/>
<path class="st0" d="M599.7,93.1h-2.4v-2.9h2.4V93.1z M599.7,110.6h-2.4V96h2.4V110.6z"/>
<path class="st0" d="M607.7,108.2l4-12.1h2.5l-5.2,14.6h-2.8l-5.1-14.6h2.5L607.7,108.2z"/>
<path class="st0" d="M617.4,103.9c0.3,3.3,2,5.2,4.8,5.2c2,0,3.2-0.9,3.8-2.9h2.4c-0.9,3.2-3.1,4.8-6.4,4.8c-4.3,0-7.1-2.9-7.1-7.6
	c0-4.7,2.7-7.8,6.9-7.8c3.3,0,5.9,2,6.6,5.2c0.2,1.1,0.3,1.6,0.3,3.1H617.4z M621.9,97.6c-2.5,0-4.1,1.7-4.5,4.6h8.9
	C626,99.4,624.3,97.6,621.9,97.6z"/>
<path class="st0" d="M455.1,147.6v-19.4h2.4v1.9c1.3-1.6,2.8-2.3,4.8-2.3c3.7,0,6.2,3.1,6.2,7.8c0,4.6-2.5,7.6-6.2,7.6
	c-2,0-3.5-0.7-4.7-2.4v6.8L455.1,147.6L455.1,147.6z M461.8,141.4c2.6,0,4.2-2.2,4.2-5.8c0-3.7-1.5-5.8-4.1-5.8
	c-2.9,0-4.5,2.1-4.5,5.6C457.4,139.2,459,141.4,461.8,141.4z"/>
<path class="st0" d="M473.8,130.8c1.3-2,2.8-3,4.3-3c0.4,0,0.6,0,1.2,0.2v2.3c-0.6-0.2-0.8-0.2-1.2-0.2c-1.5,0-3.1,1-3.7,2.3
	c-0.6,1.1-0.6,1.4-0.6,3.6v6.9h-2.5v-14.6h2.4L473.8,130.8L473.8,130.8z"/>
<path class="st0" d="M494.1,135.6c0,4.6-2.8,7.7-7,7.7s-7-3.1-7-7.7c0-4.6,2.8-7.7,7-7.7C491.3,127.9,494.1,131,494.1,135.6z
	 M482.4,135.6c0,3.5,1.9,5.8,4.7,5.8s4.7-2.3,4.7-5.8s-1.9-5.8-4.7-5.8C484.3,129.8,482.4,132.1,482.4,135.6z"/>
<path class="st0" d="M499.4,130.4c1.3-1.7,2.7-2.5,4.7-2.5c3.8,0,6.2,3.1,6.2,7.6c0,4.7-2.5,7.7-6.2,7.7c-2,0-3.5-0.7-4.8-2.3v1.9
	H497v-20.4h2.4V130.4z M503.9,141.4c2.6,0,4.1-2.1,4.1-5.8c0-3.6-1.6-5.8-4.2-5.8c-2.8,0-4.4,2.2-4.4,5.9
	C499.4,139.3,501,141.4,503.9,141.4z"/>
<path class="st0" d="M515.7,142.9h-2.4v-20.4h2.4V142.9z"/>
<path class="st0" d="M521.1,136.1c0.3,3.3,2,5.2,4.8,5.2c2,0,3.2-0.9,3.8-2.9h2.4c-0.9,3.2-3.1,4.8-6.4,4.8c-4.3,0-7.1-2.9-7.1-7.6
	c0-4.7,2.7-7.8,6.9-7.8c3.3,0,5.9,2,6.6,5.2c0.2,1.1,0.3,1.6,0.3,3.1H521.1z M525.6,129.8c-2.5,0-4.1,1.7-4.5,4.6h8.9
	C529.7,131.6,528,129.8,525.6,129.8z"/>
<path class="st0" d="M537.8,130.4c0.9-1.6,2.4-2.5,4.4-2.5c1.9,0,3.2,0.9,3.7,2.5c1.1-1.7,2.5-2.5,4.4-2.5c2.8,0,4.4,1.8,4.4,4.8
	v10.2h-2.4v-9.5c0-2.4-0.8-3.5-2.6-3.5c-2.2,0-3.5,1.8-3.5,4.8v8.2h-2.4v-9.5c0-2.4-0.8-3.5-2.5-3.5c-1.2,0-2.3,0.7-2.9,1.8
	c-0.5,0.9-0.7,1.8-0.7,3.4v7.9h-2.4v-14.6h2.4L537.8,130.4L537.8,130.4z"/>
<path class="st0" d="M573.2,132.6c-0.1-1.9-1.2-2.8-3.5-2.8c-2,0-3.3,0.8-3.3,2s0.6,1.6,4.3,2.4c2.1,0.5,3.2,0.9,4.1,1.6
	c0.9,0.7,1.3,1.7,1.3,2.9c0,2.8-2.3,4.5-6.1,4.5c-4.1,0-6.4-1.9-6.7-5.4h2.4c0.1,2.3,1.6,3.5,4.3,3.5c2.3,0,3.7-1,3.7-2.5
	c0-1.4-0.5-1.7-4.9-2.8c-1.8-0.4-2.9-0.9-3.6-1.4c-0.8-0.6-1.2-1.6-1.2-2.6c0-2.6,2.3-4.2,5.9-4.2c3.4,0,5.2,1.5,5.7,4.8H573.2z"/>
<path class="st0" d="M591.9,135.6c0,4.6-2.8,7.7-7,7.7s-7-3.1-7-7.7c0-4.6,2.8-7.7,7-7.7S591.9,131,591.9,135.6z M580.2,135.6
	c0,3.5,1.9,5.8,4.7,5.8c2.8,0,4.7-2.3,4.7-5.8s-1.9-5.8-4.7-5.8S580.2,132.1,580.2,135.6z"/>
<path class="st0" d="M597.3,142.9h-2.4v-20.4h2.4V142.9z"/>
<path class="st0" d="M605.2,140.4l4-12.1h2.5l-5.2,14.6h-2.8l-5.1-14.6h2.5L605.2,140.4z"/>
<path class="st0" d="M615.6,125.4h-2.4v-2.9h2.4V125.4z M615.6,142.9h-2.4v-14.6h2.4V142.9z"/>
<path class="st0" d="M621.7,130.4c1.2-1.7,2.8-2.6,4.9-2.6c2.9,0,4.7,1.9,4.7,5v10h-2.4v-9.1c0-2.7-1-3.9-3.2-3.9
	c-1.9,0-3.6,1.2-3.9,3c-0.1,0.4-0.1,0.8-0.1,1.6v8.4h-2.4v-14.6h2.4V130.4z"/>
<path class="st0" d="M647.3,140.3v1c0,2.7-0.3,3.9-1.2,5c-1.1,1.2-2.7,1.8-5.3,1.8c-3.9,0-5.7-1.2-5.8-3.9h2.2c0.2,1.5,1.1,2,3.6,2
	c2.4,0,3.6-0.7,4-2.3c0.1-0.5,0.1-0.8,0.1-1.8v-1.5c-1.5,1.6-2.5,2.1-4.3,2.1c-3.8,0-6.4-2.9-6.4-7.2c0-4.5,2.5-7.5,6.3-7.5
	c1.8,0,3.1,0.6,4.3,2.2v-1.8h2.4v11.9H647.3z M641,140.7c2.7,0,4.1-1.9,4.1-5.4c0-2.1-0.4-3.3-1.3-4.2c-0.8-0.8-1.9-1.3-3-1.3
	c-2.5,0-4.2,2.2-4.2,5.5C636.6,138.7,638.3,140.7,641,140.7z"/>
</svg>
